<?xml version="1.0" encoding="iso-8859-1"?>
<!-- Generator: Adobe Illustrator 19.0.0, SVG Export Plug-In . SVG Version: 6.00 Build 0)  -->
<svg xmlns="http://www.w3.org/2000/svg" xmlns:xlink="http://www.w3.org/1999/xlink" version="1.1" id="Layer_1" x="0px" y="0px" viewBox="0 0 512 512" style="enable-background:new 0 0 512 512;" xml:space="preserve" width="512px" height="512px">
<g>
	<g>
		<path d="M190.854,408.416l-61.64-201.072c-3.626-11.537-18.459-17.14-33.623-17.14c-15.162,0-29.995,5.603-33.621,17.14    L0.659,408.416C0.33,409.735,0,411.053,0,412.042c0,12.197,18.789,21.096,32.962,21.096c8.241,0,14.833-2.637,16.812-9.559    l11.208-41.203h69.552l11.206,41.203c1.978,6.922,8.571,9.559,16.811,9.559c14.175,0,32.963-8.899,32.963-21.096    C191.513,411.053,191.184,409.735,190.854,408.416z M71.529,342.821l24.061-88.34l24.063,88.34H71.529z" fill="#df4b37"/>
	</g>
</g>
<g>
	<g>
		<path d="M376.104,402.482l-40.214-72.846c23.074-8.899,39.885-29.995,39.885-66.914c0-53.729-35.93-70.54-81.088-70.54h-68.233    c-9.559,0-15.822,7.252-15.822,15.492v209.643c0,10.548,12.856,15.821,25.711,15.821s25.711-5.275,25.711-15.821v-79.441h21.756    l45.159,87.681c3.625,6.922,9.889,9.559,16.481,9.559c15.162,0,32.302-13.844,32.302-26.7    C377.752,406.767,377.423,404.46,376.104,402.482z M294.686,298.321h-32.632V237.01h32.632c18.459,0,29.667,7.582,29.667,30.655    S313.145,298.321,294.686,298.321z" fill="#df4b37"/>
	</g>
</g>
<g>
	<g>
		<path d="M495.234,136.529h-42.88V93.65c0-9.259-7.507-16.766-16.766-16.766c-9.259,0-16.766,7.507-16.766,16.766v42.88h-42.878    c-9.259,0-16.766,7.507-16.766,16.766c0,9.259,7.507,16.766,16.766,16.766h42.878v42.88c0,9.259,7.507,16.766,16.766,16.766    c9.259,0,16.766-7.507,16.766-16.766v-42.88h42.88c9.259,0,16.766-7.507,16.766-16.766S504.493,136.529,495.234,136.529z" fill="#df4b37"/>
	</g>
</g>
<g>
</g>
<g>
</g>
<g>
</g>
<g>
</g>
<g>
</g>
<g>
</g>
<g>
</g>
<g>
</g>
<g>
</g>
<g>
</g>
<g>
</g>
<g>
</g>
<g>
</g>
<g>
</g>
<g>
</g>
</svg>
